<?xml version="1.0" encoding="UTF-8"?>
<svg xmlns="http://www.w3.org/2000/svg" viewBox="0 0 200 200" width="400" height="400"><defs><filter id="grunge"><feTurbulence type="fractalNoise" baseFrequency="0.85" numOctaves="2" seed="7" result="n"/><feDisplacementMap in="SourceGraphic" in2="n" scale="2.4" xChannelSelector="R" yChannelSelector="G"/></filter><pattern id="scan" width="4" height="4" patternUnits="userSpaceOnUse"><rect width="4" height="2" fill="#000000" opacity="0.28"/></pattern><clipPath id="tile"><rect x="28" y="28" width="144" height="144" rx="16"/></clipPath></defs><rect x="28" y="28" width="144" height="144" rx="16" fill="none" stroke="#7C3AED" stroke-width="2.4" opacity="0.9"/><g clip-path="url(#tile)"><g filter="url(#grunge)"><g opacity="0.42"><circle cx="100" cy="100" r="62" fill="none" stroke="#E11D48" stroke-width="3.5"/><circle cx="100" cy="100" r="42" fill="none" stroke="#E11D48" stroke-width="1.4" opacity="0.55"/><circle cx="100" cy="100" r="22" fill="none" stroke="#E11D48" stroke-width="1.4" opacity="0.4"/><line x1="100" y1="38" x2="100" y2="162" stroke="#E11D48" stroke-width="1" opacity="0.22"/><line x1="38" y1="100" x2="162" y2="100" stroke="#E11D48" stroke-width="1" opacity="0.22"/><path d="M100 100 L100 38 A62 62 0 0 1 153.7 69 Z" fill="#E11D48" opacity="0.13"/><line x1="100" y1="100" x2="153.7" y2="69" stroke="#E11D48" stroke-width="2"/><animateTransform attributeName="transform" type="translate" values="-2.5,0;-2.5,0;-6,-1;-3,1;-2.5,0" keyTimes="0;0.42;0.48;0.52;1" dur="3.6s" repeatCount="indefinite"/></g><g opacity="0.38"><circle cx="100" cy="100" r="62" fill="none" stroke="#2563EB" stroke-width="3.5"/><circle cx="100" cy="100" r="42" fill="none" stroke="#2563EB" stroke-width="1.4" opacity="0.55"/><circle cx="100" cy="100" r="22" fill="none" stroke="#2563EB" stroke-width="1.4" opacity="0.4"/><line x1="100" y1="38" x2="100" y2="162" stroke="#2563EB" stroke-width="1" opacity="0.22"/><line x1="38" y1="100" x2="162" y2="100" stroke="#2563EB" stroke-width="1" opacity="0.22"/><path d="M100 100 L100 38 A62 62 0 0 1 153.7 69 Z" fill="#2563EB" opacity="0.13"/><line x1="100" y1="100" x2="153.7" y2="69" stroke="#2563EB" stroke-width="2"/><animateTransform attributeName="transform" type="translate" values="2.5,0;2.5,0;6,1;3,-1;2.5,0" keyTimes="0;0.42;0.48;0.52;1" dur="3.6s" repeatCount="indefinite"/></g><g opacity="0.6"><circle cx="100" cy="100" r="62" fill="none" stroke="#6D28D9" stroke-width="3.5"/><circle cx="100" cy="100" r="42" fill="none" stroke="#6D28D9" stroke-width="1.4" opacity="0.55"/><circle cx="100" cy="100" r="22" fill="none" stroke="#6D28D9" stroke-width="1.4" opacity="0.4"/><line x1="100" y1="38" x2="100" y2="162" stroke="#6D28D9" stroke-width="1" opacity="0.22"/><line x1="38" y1="100" x2="162" y2="100" stroke="#6D28D9" stroke-width="1" opacity="0.22"/><path d="M100 100 L100 38 A62 62 0 0 1 153.7 69 Z" fill="#6D28D9" opacity="0.13"/><line x1="100" y1="100" x2="153.7" y2="69" stroke="#6D28D9" stroke-width="2"/></g><g opacity="0.6"><polyline points="72,62 108,100 72,138" fill="none" stroke="#E11D48" stroke-width="14" stroke-linecap="square" stroke-linejoin="miter"/><rect x="114" y="126" width="30" height="14" fill="#E11D48"/><animateTransform attributeName="transform" type="translate" values="-2.5,0;-2.5,0;-6,-1;-3,1;-2.5,0" keyTimes="0;0.42;0.48;0.52;1" dur="3.6s" repeatCount="indefinite"/></g><g opacity="0.5"><polyline points="72,62 108,100 72,138" fill="none" stroke="#2563EB" stroke-width="14" stroke-linecap="square" stroke-linejoin="miter"/><rect x="114" y="126" width="30" height="14" fill="#2563EB"/><animateTransform attributeName="transform" type="translate" values="2.5,0;2.5,0;6,1;3,-1;2.5,0" keyTimes="0;0.42;0.48;0.52;1" dur="3.6s" repeatCount="indefinite"/></g><g><polyline points="72,62 108,100 72,138" fill="none" stroke="#6D28D9" stroke-width="14" stroke-linecap="square" stroke-linejoin="miter"/><rect x="114" y="126" width="30" height="14" fill="#6D28D9"><animate attributeName="opacity" values="1;1;0.12;0.12;1" keyTimes="0;0.45;0.5;0.95;1" dur="1.1s" repeatCount="indefinite"/></rect></g></g><rect x="28" y="28" width="144" height="144" fill="url(#scan)"/><rect x="42" y="96" width="116" height="10" fill="#6D28D9" opacity="0"><animate attributeName="opacity" values="0;0;1;1;0;0" keyTimes="0;0.9;0.93;0.97;0.99;1" dur="4.2s" repeatCount="indefinite"/><animateTransform attributeName="transform" type="translate" values="0,0;0,0;0,-8;0,6;0,0;0,0" keyTimes="0;0.9;0.93;0.96;0.99;1" dur="4.2s" repeatCount="indefinite"/></rect></g></svg>